# xmcd CD database file
#
# Track frame offsets:
#	150
#	10567
#	27957
#	37640
#	50199
#	66810
#	81608
#	104527
#	117288
#	131830
#	141856
#	161807
#	177413
#	190289
#
# Disc length: 2666 seconds
#
# Revision: 1
# Processed by: cddbd v1.5.2PL0 Copyright (c) Steve Scherf et al.
# Submitted via: CDex 1.51
#
DISCID=c60a680e
DTITLE=Ferlin Husky - Truck Drivin' Son Of A Gun
DYEAR=1997
DGENRE=Country
TTITLE0=Six Days On The Road
TTITLE1=Convoy
TTITLE2=Truck Drivin' Sun Of A Gun
TTITLE3=Don't Fall A Sleep At The Wheel
TTITLE4=Giddy-Up Go
TTITLE5=Truck Driver's Blues
TTITLE6=Teddy Bear
TTITLE7=Drunken Driver
TTITLE8=Hello, I'm A Truck
TTITLE9=Wings Of A Dove
TTITLE10=Little Joe
TTITLE11=Phantom 309
TTITLE12=Me And Old CB
TTITLE13=Lookin' At The World Through A Windshield
EXTD=YEAR: 1997
EXTT0=
EXTT1=
EXTT2=
EXTT3=
EXTT4=
EXTT5=
EXTT6=
EXTT7=
EXTT8=
EXTT9=
EXTT10=
EXTT11=
EXTT12=
EXTT13=
PLAYORDER=
